<svg width="24" height="24" viewBox="0 0 24 24" fill="none" xmlns="http://www.w3.org/2000/svg">
<g id="Icons/Bulk/archivetick">
<path id="Vector" opacity="0.4" d="M16.82 1.91003H7.18001C5.06001 1.91003 3.32001 3.65003 3.32001 5.77003V19.86C3.32001 21.66 4.61001 22.42 6.19001 21.55L11.07 18.84C11.59 18.55 12.43 18.55 12.94 18.84L17.82 21.55C19.4 22.43 20.69 21.67 20.69 19.86V5.77003C20.68 3.65003 18.95 1.91003 16.82 1.91003Z" fill="#9075FE"/>
<path id="Vector_2" d="M11.09 13.251C10.9 13.251 10.71 13.181 10.56 13.031L9.06 11.531C8.92052 11.3899 8.8423 11.1995 8.8423 11.001C8.8423 10.8026 8.92052 10.6122 9.06 10.471C9.35 10.181 9.83 10.181 10.12 10.471L11.09 11.441L14.56 7.97104C14.85 7.68104 15.33 7.68104 15.62 7.97104C15.91 8.26104 15.91 8.74104 15.62 9.03104L11.62 13.031C11.47 13.181 11.28 13.251 11.09 13.251Z" fill="#9075FE"/>
</g>
</svg>
