<svg width="24" height="24" viewBox="0 0 24 24" fill="none" xmlns="http://www.w3.org/2000/svg">
<path d="M16.3605 9.06714C16.0506 8.88804 15.6522 8.88804 15.298 9.06714L12.8188 10.5448L11.1366 11.4851L8.70166 12.9627C8.39176 13.1418 7.99333 13.1418 7.63916 12.9627L5.73551 11.7985C5.42562 11.6194 5.20426 11.2612 5.20426 10.8582V8.61938C5.20426 8.26117 5.38135 7.90296 5.73551 7.67908L7.63916 6.55968C7.94906 6.38057 8.34749 6.38057 8.70166 6.55968L10.6053 7.72386C10.9152 7.90296 11.1366 8.26117 11.1366 8.66416V10.1418L12.8188 9.15669V7.6343C12.8188 7.2761 12.6418 6.91789 12.2876 6.69401L8.74593 4.58953C8.43604 4.41042 8.0376 4.41042 7.68343 4.58953L4.05322 6.73878C3.69906 6.91789 3.52197 7.2761 3.52197 7.6343V11.8433C3.52197 12.2015 3.69906 12.5597 4.05322 12.7836L7.63916 14.888C7.94906 15.0671 8.34749 15.0671 8.70166 14.888L11.1366 13.4552L12.8188 12.4701L15.2537 11.0373C15.5636 10.8582 15.9621 10.8582 16.3162 11.0373L18.2199 12.1567C18.5298 12.3358 18.7511 12.694 18.7511 13.097V15.3358C18.7511 15.694 18.5741 16.0522 18.2199 16.2761L16.3605 17.3955C16.0506 17.5746 15.6522 17.5746 15.298 17.3955L13.3944 16.2761C13.0845 16.097 12.8631 15.7388 12.8631 15.3358V13.903L11.1808 14.888V16.3656C11.1808 16.7239 11.3579 17.0821 11.7121 17.3059L15.298 19.4104C15.6079 19.5895 16.0063 19.5895 16.3605 19.4104L19.9465 17.3059C20.2563 17.1268 20.4777 16.7686 20.4777 16.3656V12.1119C20.4777 11.7537 20.3006 11.3955 19.9465 11.1716L16.3605 9.06714Z" fill="#636977"/>
</svg>
