<svg width="24" height="24" viewBox="0 0 24 24" fill="none" xmlns="http://www.w3.org/2000/svg">
<g clip-path="url(#clip0_1788_2862)">
<path d="M9.421 3.31698C9.52411 3.56125 9.52599 3.83647 9.42623 4.08213C9.32646 4.32778 9.13323 4.52377 8.889 4.62698C7.43922 5.23898 6.20204 6.26481 5.33218 7.5762C4.46232 8.88759 3.99838 10.4263 3.99838 12C3.99838 13.5736 4.46232 15.1124 5.33218 16.4238C6.20204 17.7351 7.43922 18.761 8.889 19.373C9.01265 19.4222 9.12524 19.4956 9.22017 19.5889C9.31509 19.6821 9.39044 19.7934 9.4418 19.9162C9.49317 20.039 9.5195 20.1707 9.51928 20.3038C9.51905 20.4369 9.49226 20.5686 9.44048 20.6912C9.3887 20.8138 9.31297 20.9248 9.21773 21.0178C9.12249 21.1107 9.00965 21.1837 8.88583 21.2325C8.76201 21.2813 8.62969 21.3049 8.49664 21.3019C8.3636 21.2989 8.23249 21.2693 8.111 21.215C6.29934 20.4498 4.75343 19.1676 3.66653 17.5286C2.57962 15.8896 1.99996 13.9666 2 12C2 7.85498 4.522 4.29998 8.11 2.78498C8.23101 2.73377 8.36092 2.70691 8.49231 2.70594C8.6237 2.70496 8.754 2.72989 8.87575 2.7793C8.9975 2.8287 9.10832 2.90162 9.20188 2.99388C9.29544 3.08614 9.3699 3.19593 9.421 3.31698ZM15.889 2.78498C17.7007 3.55005 19.2467 4.83226 20.3336 6.47126C21.4206 8.11026 22.0002 10.0333 22 12C22 16.145 19.478 19.699 15.89 21.215C15.6457 21.3184 15.3704 21.3206 15.1245 21.221C14.8787 21.1214 14.6824 20.9282 14.579 20.684C14.4756 20.4397 14.4734 20.1644 14.573 19.9185C14.6726 19.6726 14.8657 19.4764 15.11 19.373C16.5598 18.761 17.797 17.7351 18.6668 16.4238C19.5367 15.1124 20.0006 13.5736 20.0006 12C20.0006 10.4263 19.5367 8.88759 18.6668 7.5762C17.797 6.26481 16.5598 5.23898 15.11 4.62698C14.8657 4.52355 14.6726 4.32731 14.573 4.08145C14.4734 3.83559 14.4756 3.56025 14.579 3.31598C14.6824 3.07172 14.8787 2.87855 15.1245 2.77896C15.3704 2.67938 15.6457 2.68155 15.89 2.78498H15.889ZM12 5.99998C12.2652 5.99998 12.5196 6.10534 12.7071 6.29287C12.8946 6.48041 13 6.73476 13 6.99998V7.99998H15C15.2652 7.99998 15.5196 8.10534 15.7071 8.29287C15.8946 8.48041 16 8.73476 16 8.99998C16 9.2652 15.8946 9.51955 15.7071 9.70709C15.5196 9.89462 15.2652 9.99998 15 9.99998H13V11H14C14.663 11 15.2989 11.2634 15.7678 11.7322C16.2366 12.2011 16.5 12.8369 16.5 13.5C16.5 14.163 16.2366 14.7989 15.7678 15.2677C15.2989 15.7366 14.663 16 14 16H13V17C13 17.2652 12.8946 17.5196 12.7071 17.7071C12.5196 17.8946 12.2652 18 12 18C11.7348 18 11.4804 17.8946 11.2929 17.7071C11.1054 17.5196 11 17.2652 11 17V16H9C8.73478 16 8.48043 15.8946 8.29289 15.7071C8.10536 15.5196 8 15.2652 8 15C8 14.7348 8.10536 14.4804 8.29289 14.2929C8.48043 14.1053 8.73478 14 9 14H11V13H10C9.33696 13 8.70107 12.7366 8.23223 12.2677C7.76339 11.7989 7.5 11.163 7.5 10.5C7.5 9.83694 7.76339 9.20105 8.23223 8.73221C8.70107 8.26337 9.33696 7.99998 10 7.99998H11V6.99998C11 6.73476 11.1054 6.48041 11.2929 6.29287C11.4804 6.10534 11.7348 5.99998 12 5.99998ZM14 13H13V14H14C14.1326 14 14.2598 13.9473 14.3536 13.8535C14.4473 13.7598 14.5 13.6326 14.5 13.5C14.5 13.3674 14.4473 13.2402 14.3536 13.1464C14.2598 13.0527 14.1326 13 14 13ZM11 9.99998H10C9.86739 9.99998 9.74021 10.0527 9.64645 10.1464C9.55268 10.2402 9.5 10.3674 9.5 10.5C9.5 10.6326 9.55268 10.7598 9.64645 10.8535C9.74021 10.9473 9.86739 11 10 11H11V9.99998Z" fill="#636977"/>
</g>
<defs>
<clipPath id="clip0_1788_2862">
<rect width="24" height="24" fill="white"/>
</clipPath>
</defs>
</svg>
