<svg width="370" height="370" viewBox="0 0 370 370" fill="none" xmlns="http://www.w3.org/2000/svg">
    <rect width="370" height="370" fill="black" />
    <path
        d="M211.531 153.032C211.235 152.798 210.89 152.635 210.522 152.554C210.154 152.473 209.773 152.476 209.406 152.563L169.406 162.563C168.861 162.696 168.376 163.009 168.031 163.451C167.685 163.893 167.498 164.439 167.5 165V199.407C165.414 198.013 162.923 197.356 160.421 197.541C157.919 197.726 155.551 198.742 153.693 200.427C151.835 202.112 150.593 204.37 150.165 206.841C149.737 209.313 150.147 211.857 151.331 214.069C152.514 216.28 154.403 218.033 156.697 219.048C158.991 220.063 161.558 220.283 163.991 219.672C166.424 219.06 168.583 217.654 170.125 215.675C171.666 213.696 172.502 211.259 172.5 208.75V179.438L207.5 170.688V189.407C205.414 188.013 202.923 187.356 200.421 187.541C197.919 187.726 195.551 188.742 193.693 190.427C191.835 192.112 190.593 194.37 190.165 196.841C189.737 199.313 190.147 201.857 191.331 204.069C192.514 206.28 194.403 208.033 196.697 209.048C198.991 210.063 201.558 210.283 203.991 209.672C206.424 209.06 208.583 207.654 210.125 205.675C211.666 203.696 212.502 201.259 212.5 198.75V155C212.504 154.619 212.418 154.243 212.25 153.901C212.081 153.559 211.835 153.261 211.531 153.032Z"
        fill="white" />
</svg>
