<svg width="24" height="25" viewBox="0 0 24 25" fill="none" xmlns="http://www.w3.org/2000/svg">
<path opacity="0.4" d="M20.36 13.232C19.99 13.232 19.68 12.952 19.64 12.582C19.5219 11.4959 19.1714 10.4479 18.6123 9.50926C18.0532 8.5706 17.2987 7.76324 16.4 7.14203C16.3216 7.08774 16.2547 7.01848 16.2032 6.93824C16.1517 6.858 16.1166 6.76836 16.0998 6.67448C16.0831 6.58061 16.0851 6.48435 16.1057 6.39125C16.1263 6.29815 16.1652 6.21005 16.22 6.13203C16.45 5.80203 16.9 5.72203 17.23 5.95203C18.2986 6.69411 19.1959 7.65633 19.8617 8.77404C20.5275 9.89174 20.9463 11.139 21.09 12.432C21.13 12.832 20.84 13.192 20.44 13.232H20.36ZM3.74 13.281H3.67C3.47784 13.2608 3.30152 13.1653 3.17967 13.0154C3.05783 12.8654 3.00041 12.6732 3.02 12.481C3.1532 11.1906 3.56127 9.94373 4.21674 8.82426C4.87221 7.70478 5.75988 6.7387 6.82 5.99103C7.14 5.76103 7.6 5.84103 7.83 6.16103C8.06 6.49103 7.98 6.94103 7.66 7.17103C6.77016 7.79921 6.0251 8.61058 5.47487 9.55061C4.92465 10.4907 4.58202 11.5376 4.47 12.621C4.43 13.001 4.11 13.281 3.74 13.281ZM15.99 21.6C14.76 22.19 13.44 22.49 12.06 22.49C10.62 22.49 9.25 22.17 7.97 21.52C7.88462 21.4781 7.80846 21.4195 7.746 21.3478C7.68353 21.2761 7.636 21.1926 7.6062 21.1023C7.5764 21.0119 7.56492 20.9166 7.57244 20.8217C7.57996 20.7269 7.60633 20.6345 7.65 20.55C7.82 20.19 8.26 20.05 8.62 20.22C9.25 20.54 9.92 20.76 10.6 20.89C11.52 21.07 12.46 21.08 13.38 20.92C14.06 20.8 14.73 20.59 15.35 20.29C15.72 20.12 16.16 20.26 16.32 20.63C16.5 20.99 16.36 21.43 15.99 21.6Z" fill="#636977"/>
<path d="M12.05 2.51196C10.5 2.51196 9.22998 3.77196 9.22998 5.33196C9.22998 6.89196 10.49 8.15196 12.05 8.15196C13.61 8.15196 14.87 6.89196 14.87 5.33196C14.87 3.77196 13.61 2.51196 12.05 2.51196ZM5.04998 14.371C3.49998 14.371 2.22998 15.631 2.22998 17.191C2.22998 18.751 3.48998 20.011 5.04998 20.011C6.60998 20.011 7.86998 18.751 7.86998 17.191C7.86998 15.631 6.59998 14.371 5.04998 14.371ZM18.95 14.371C17.4 14.371 16.13 15.631 16.13 17.191C16.13 18.751 17.39 20.011 18.95 20.011C20.51 20.011 21.77 18.751 21.77 17.191C21.77 15.631 20.51 14.371 18.95 14.371Z" fill="#636977"/>
</svg>
