<svg width="24" height="24" viewBox="0 0 24 24" fill="none" xmlns="http://www.w3.org/2000/svg">
<path opacity="0.4" d="M16.8201 1.91003H7.18007C5.06007 1.91003 3.32007 3.65003 3.32007 5.77003V19.86C3.32007 21.66 4.61007 22.42 6.19007 21.55L11.0701 18.84C11.5901 18.55 12.4301 18.55 12.9401 18.84L17.8201 21.55C19.4001 22.43 20.6901 21.67 20.6901 19.86V5.77003C20.6801 3.65003 18.9501 1.91003 16.8201 1.91003Z" fill="#439A97"/>
<path d="M11.09 13.251C10.9 13.251 10.71 13.181 10.56 13.031L9.05999 11.531C8.92051 11.3899 8.84229 11.1995 8.84229 11.001C8.84229 10.8026 8.92051 10.6122 9.05999 10.471C9.34999 10.181 9.82999 10.181 10.12 10.471L11.09 11.441L14.56 7.97104C14.85 7.68104 15.33 7.68104 15.62 7.97104C15.91 8.26104 15.91 8.74104 15.62 9.03104L11.62 13.031C11.47 13.181 11.28 13.251 11.09 13.251Z" fill="#439A97"/>
</svg>
