<svg width="24" height="25" viewBox="0 0 24 25" fill="none" xmlns="http://www.w3.org/2000/svg">
<path opacity="0.4" d="M7.81 2.5H16.18C19.83 2.5 22 4.67 22 8.31V16.68C22 20.32 19.83 22.49 16.19 22.49H7.81C4.17 22.5 2 20.33 2 16.69V8.31C2 4.67 4.17 2.5 7.81 2.5Z" fill="#439A97"/>
<path d="M13.9199 9.48H8.76994L9.09994 9.15C9.38994 8.86 9.38994 8.38 9.09994 8.09C8.9588 7.95052 8.76837 7.8723 8.56994 7.8723C8.37151 7.8723 8.18108 7.95052 8.03994 8.09L6.46994 9.66C6.17994 9.95 6.17994 10.43 6.46994 10.72L8.03994 12.29C8.18994 12.44 8.37994 12.51 8.56994 12.51C8.75994 12.51 8.94994 12.44 9.09994 12.29C9.38994 12 9.38994 11.52 9.09994 11.23L8.83994 10.97H13.9199C15.1999 10.97 16.2499 12.01 16.2499 13.3C16.2499 14.59 15.2099 15.63 13.9199 15.63H8.99994C8.58994 15.63 8.24994 15.97 8.24994 16.38C8.24994 16.79 8.58994 17.13 8.99994 17.13H13.9199C16.0299 17.13 17.7499 15.41 17.7499 13.3C17.7499 11.19 16.0299 9.48 13.9199 9.48Z" fill="#439A97"/>
</svg>
