<svg width="9" height="19" viewBox="0 0 9 19" fill="none" xmlns="http://www.w3.org/2000/svg">
<path opacity="0.4" d="M8.74986 15.5484L8.74986 16.9584C8.74986 17.8884 7.61986 18.3584 6.95986 17.6984L1.22986 11.9684C0.839999 11.5793 0.530697 11.1171 0.319662 10.6084C0.108626 10.0996 -3.69477e-07 9.5542 -3.93553e-07 9.00339C-4.17629e-07 8.45259 0.108626 7.90719 0.319662 7.39842C0.530697 6.88964 0.839999 6.42749 1.22986 6.03839L6.95986 0.308393C7.61986 -0.351607 8.74986 0.118395 8.74986 1.04839L8.74986 2.45839C8.74986 3.28839 8.41986 4.08839 7.82986 4.67839L4.24986 8.25839C3.83986 8.66839 3.83986 9.32839 4.24986 9.73839L7.82986 13.3184C8.41986 13.9184 8.74986 14.7184 8.74986 15.5484Z" fill="#439A97"/>
</svg>
