<svg width="9" height="18" viewBox="0 0 9 18" fill="none" xmlns="http://www.w3.org/2000/svg">
<path d="M-1.07462e-07 15.5416L-4.58289e-08 16.9516C-5.1773e-09 17.8816 1.13 18.3516 1.79 17.6916L7.52 11.9616C7.90986 11.5725 8.21916 11.1103 8.4302 10.6015C8.64124 10.0928 8.74986 9.54736 8.74986 8.99656C8.74986 8.44575 8.64123 7.90035 8.4302 7.39158C8.21916 6.88281 7.90986 6.42065 7.52 6.03156L1.79 0.301557C1.13 -0.348442 -7.81492e-07 0.121557 -7.4084e-07 1.05156L-6.79207e-07 2.46156C-6.42926e-07 3.29156 0.329999 4.09156 0.919999 4.68156L4.5 8.26156C4.91 8.67156 4.91 9.33156 4.5 9.74156L0.92 13.3216C0.33 13.9116 -1.43742e-07 14.7116 -1.07462e-07 15.5416Z" fill="#439A97"/>
</svg>
