<svg width="24" height="24" viewBox="0 0 24 24" fill="none" xmlns="http://www.w3.org/2000/svg">
<path d="M5.45991 2H4.04991C3.11991 2 2.64991 3.13 3.30991 3.79L9.03991 9.52C9.429 9.90986 9.89116 10.2192 10.3999 10.4302C10.9087 10.6412 11.4541 10.7499 12.0049 10.7499C12.5557 10.7499 13.1011 10.6412 13.6099 10.4302C14.1187 10.2192 14.5808 9.90986 14.9699 9.52L20.6999 3.79C21.3499 3.13 20.8799 2 19.9499 2H18.5399C17.7099 2 16.9099 2.33 16.3199 2.92L12.7399 6.5C12.3299 6.91 11.6699 6.91 11.2599 6.5L7.67991 2.92C7.08991 2.33 6.28991 2 5.45991 2Z" fill="#439A97"/>
<path opacity="0.4" d="M5.45991 21.969H4.04991C3.11991 21.969 2.64991 20.839 3.30991 20.179L9.03991 14.449C9.429 14.0591 9.89116 13.7498 10.3999 13.5388C10.9087 13.3277 11.4541 13.2191 12.0049 13.2191C12.5557 13.2191 13.1011 13.3277 13.6099 13.5388C14.1187 13.7498 14.5808 14.0591 14.9699 14.449L20.6999 20.179C21.3599 20.839 20.8899 21.969 19.9599 21.969H18.5499C17.7199 21.969 16.9199 21.639 16.3299 21.049L12.7499 17.469C12.3399 17.059 11.6799 17.059 11.2699 17.469L7.68991 21.049C7.08991 21.639 6.28991 21.969 5.45991 21.969Z" fill="#439A97"/>
</svg>
