<svg width="24" height="24" viewBox="0 0 24 24" fill="none" xmlns="http://www.w3.org/2000/svg">
<path d="M4 18.5416L4 19.9516C4 20.8816 5.13 21.3516 5.79 20.6916L11.52 14.9616C11.9099 14.5725 12.2192 14.1103 12.4302 13.6015C12.6412 13.0928 12.7499 12.5474 12.7499 11.9966C12.7499 11.4458 12.6412 10.9004 12.4302 10.3916C12.2192 9.88281 11.9099 9.42065 11.52 9.03156L5.79 3.30156C5.13 2.65156 4 3.12156 4 4.05156L4 5.46156C4 6.29156 4.33 7.09156 4.92 7.68156L8.5 11.2616C8.91 11.6716 8.91 12.3316 8.5 12.7416L4.92 16.3216C4.33 16.9116 4 17.7116 4 18.5416Z" fill="#439A97"/>
<path opacity="0.4" d="M19.7499 18.5484L19.7499 19.9584C19.7499 20.8884 18.6199 21.3584 17.9599 20.6984L12.2299 14.9684C11.84 14.5793 11.5307 14.1171 11.3197 13.6084C11.1086 13.0996 11 12.5542 11 12.0034C11 11.4526 11.1086 10.9072 11.3197 10.3984C11.5307 9.88964 11.84 9.42749 12.2299 9.03839L17.9599 3.30839C18.6199 2.64839 19.7499 3.11839 19.7499 4.04839L19.7499 5.45839C19.7499 6.28839 19.4199 7.08839 18.8299 7.67839L15.2499 11.2584C14.8399 11.6684 14.8399 12.3284 15.2499 12.7384L18.8299 16.3184C19.4199 16.9184 19.7499 17.7184 19.7499 18.5484Z" fill="#439A97"/>
</svg>
