<svg width="24" height="24" viewBox="0 0 24 24" fill="none" xmlns="http://www.w3.org/2000/svg">
<path opacity="0.4" d="M11.5 21C12.7476 21 13.9829 20.7543 15.1355 20.2769C16.2881 19.7994 17.3354 19.0997 18.2175 18.2175C19.0997 17.3354 19.7994 16.2881 20.2769 15.1355C20.7543 13.9829 21 12.7476 21 11.5C21 10.2524 20.7543 9.0171 20.2769 7.86451C19.7994 6.71191 19.0997 5.66464 18.2175 4.78249C17.3354 3.90033 16.2881 3.20056 15.1355 2.72314C13.9829 2.24572 12.7476 2 11.5 2C8.98044 2 6.56408 3.00089 4.78249 4.78249C3.00089 6.56408 2 8.98044 2 11.5C2 14.0196 3.00089 16.4359 4.78249 18.2175C6.56408 19.9991 8.98044 21 11.5 21Z" fill="#439A97"/>
<path d="M21.2999 21.999C21.1199 21.999 20.9399 21.929 20.8099 21.799L18.9499 19.939C18.8201 19.8069 18.7473 19.6291 18.7473 19.444C18.7473 19.2588 18.8201 19.081 18.9499 18.949C19.2199 18.679 19.6599 18.679 19.9399 18.949L21.7999 20.809C22.0699 21.079 22.0699 21.519 21.7999 21.799C21.6599 21.929 21.4799 21.999 21.2999 21.999Z" fill="#439A97"/>
</svg>
