<svg width="24" height="24" viewBox="0 0 24 24" fill="none" xmlns="http://www.w3.org/2000/svg">
<path opacity="0.8" d="M12.9 2.51801L12.87 2.58801L9.96995 9.31801H7.11995C6.43995 9.31801 5.79995 9.44801 5.19995 9.70801L6.94995 5.52801L6.98995 5.43801L7.04995 5.27801C7.07995 5.20801 7.09995 5.14801 7.12995 5.09801C8.43995 2.06801 9.91995 1.37801 12.9 2.51801Z" fill="#439A97"/>
<path d="M18.289 9.52002C17.839 9.39002 17.369 9.32002 16.879 9.32002H9.96899L12.869 2.59002L12.899 2.52002C13.039 2.57002 13.189 2.64002 13.339 2.69002L15.549 3.62002C16.779 4.13002 17.639 4.66002 18.169 5.30002C18.259 5.42002 18.339 5.53002 18.419 5.66002C18.509 5.80002 18.579 5.94002 18.619 6.09002C18.659 6.18002 18.689 6.26002 18.709 6.35002C18.969 7.20002 18.809 8.23002 18.289 9.52002Z" fill="#439A97"/>
<path opacity="0.4" d="M21.758 14.1999V16.1499C21.758 16.3499 21.748 16.5499 21.738 16.7399C21.548 20.2399 19.598 21.9999 15.898 21.9999H8.09804C7.84804 21.9999 7.61804 21.9799 7.38804 21.9499C4.20804 21.7399 2.50804 20.0399 2.28804 16.8599C2.25804 16.6199 2.23804 16.3899 2.23804 16.1499V14.1999C2.23804 12.1899 3.45804 10.4599 5.19804 9.70995C5.79804 9.44995 6.43804 9.31995 7.11804 9.31995H16.878C17.368 9.31995 17.838 9.38995 18.288 9.51995C19.2911 9.826 20.1695 10.4458 20.7941 11.2882C21.4187 12.1306 21.7566 13.1512 21.758 14.1999Z" fill="#439A97"/>
<path opacity="0.6" d="M6.94804 5.53101L5.19804 9.71101C4.32015 10.0887 3.57204 10.7151 3.04603 11.513C2.52003 12.3109 2.23914 13.2453 2.23804 14.201V11.271C2.23804 8.43101 4.25804 6.06101 6.94804 5.53101ZM21.76 11.27V14.2C21.7586 13.1513 21.4207 12.1307 20.7961 11.2883C20.1715 10.4459 19.2931 9.82606 18.29 9.52001C18.81 8.23001 18.97 7.20001 18.71 6.35001C18.69 6.26001 18.66 6.18001 18.62 6.09001C19.567 6.58377 20.3605 7.32777 20.9141 8.24107C21.4678 9.15438 21.7603 10.202 21.76 11.27Z" fill="#439A97"/>
</svg>
