<svg width="24" height="24" viewBox="0 0 24 24" fill="none" xmlns="http://www.w3.org/2000/svg">
<path opacity="0.4" d="M22.0001 13.85C21.8652 13.8524 21.7328 13.814 21.6201 13.74L19.1201 12.24C17.8201 11.46 16.2001 11.46 14.8901 12.24C14.0193 12.765 13.0218 13.0425 12.0051 13.0425C10.9883 13.0425 9.9908 12.765 9.12007 12.24C7.82007 11.46 6.20007 11.46 4.89007 12.24L2.39007 13.74C2.30537 13.7905 2.21154 13.8239 2.11393 13.8382C2.01633 13.8525 1.91687 13.8474 1.82122 13.8233C1.72558 13.7991 1.63563 13.7564 1.5565 13.6975C1.47738 13.6386 1.41063 13.5647 1.36007 13.48C1.30951 13.3953 1.27613 13.3014 1.26184 13.2038C1.24754 13.1062 1.25261 13.0068 1.27675 12.9111C1.3009 12.8155 1.34364 12.7255 1.40255 12.6464C1.46145 12.5673 1.53537 12.5005 1.62007 12.45L4.12007 10.95C4.9908 10.4249 5.9883 10.1475 7.00507 10.1475C8.02185 10.1475 9.01935 10.4249 9.89007 10.95C11.1901 11.73 12.8101 11.73 14.1201 10.95C14.9908 10.4249 15.9883 10.1475 17.0051 10.1475C18.0218 10.1475 19.0193 10.4249 19.8901 10.95L22.3901 12.45C22.7501 12.66 22.8601 13.12 22.6501 13.48C22.5821 13.5918 22.4867 13.6845 22.373 13.7492C22.2593 13.8139 22.1309 13.8486 22.0001 13.85Z" fill="#CBEDD5"/>
<path d="M6.99794 6.84802C5.99794 6.84802 4.99794 6.57802 4.10794 6.04802L1.60794 4.54802C1.52302 4.49767 1.4489 4.43102 1.38983 4.35192C1.33076 4.27281 1.28791 4.18281 1.26375 4.08709C1.23958 3.99137 1.23458 3.89181 1.24903 3.79415C1.26348 3.69649 1.2971 3.60265 1.34794 3.51802C1.55794 3.15802 2.01794 3.04802 2.37794 3.25802L4.87794 4.75802C6.17794 5.53802 7.79794 5.53802 9.10794 4.75802C9.97867 4.23298 10.9762 3.95551 11.9929 3.95551C13.0097 3.95551 14.0072 4.23298 14.8779 4.75802C16.1779 5.53802 17.7979 5.53802 19.1079 4.75802L21.6079 3.25802C21.6926 3.20746 21.7865 3.17408 21.8841 3.15979C21.9817 3.14549 22.0811 3.15056 22.1768 3.1747C22.2724 3.19884 22.3624 3.24159 22.4415 3.3005C22.5206 3.3594 22.5874 3.43332 22.6379 3.51802C22.6885 3.60272 22.7219 3.69656 22.7362 3.79416C22.7505 3.89176 22.7454 3.99122 22.7213 4.08687C22.6971 4.18251 22.6544 4.27247 22.5955 4.35159C22.5366 4.43072 22.4626 4.49746 22.3779 4.54802L19.8779 6.04802C19.0072 6.57306 18.0097 6.85053 16.9929 6.85053C15.9762 6.85053 14.9787 6.57306 14.1079 6.04802C12.8079 5.26802 11.1879 5.26802 9.87794 6.04802C8.99794 6.57802 7.99794 6.84802 6.99794 6.84802ZM21.9999 20.85C21.8651 20.8524 21.7326 20.8141 21.6199 20.74L19.1199 19.24C17.8199 18.46 16.1999 18.46 14.8899 19.24C14.0192 19.7651 13.0217 20.0425 12.0049 20.0425C10.9882 20.0425 9.99067 19.7651 9.11994 19.24C7.81994 18.46 6.19994 18.46 4.88994 19.24L2.38994 20.74C2.30524 20.7906 2.21141 20.824 2.1138 20.8383C2.0162 20.8526 1.91674 20.8475 1.82109 20.8233C1.72545 20.7992 1.6355 20.7565 1.55637 20.6975C1.47725 20.6386 1.4105 20.5647 1.35994 20.48C1.30938 20.3953 1.276 20.3015 1.26171 20.2039C1.24741 20.1063 1.25248 20.0068 1.27662 19.9112C1.30076 19.8155 1.34351 19.7256 1.40242 19.6465C1.46132 19.5673 1.53524 19.5006 1.61994 19.45L4.11994 17.95C4.99067 17.425 5.98817 17.1475 7.00494 17.1475C8.02172 17.1475 9.01921 17.425 9.88994 17.95C11.1899 18.73 12.8099 18.73 14.1199 17.95C14.9907 17.425 15.9882 17.1475 17.0049 17.1475C18.0217 17.1475 19.0192 17.425 19.8899 17.95L22.3899 19.45C22.7499 19.66 22.8599 20.12 22.6499 20.48C22.582 20.5918 22.4866 20.6845 22.3729 20.7492C22.2592 20.814 22.1308 20.8487 21.9999 20.85Z" fill="#CBEDD5"/>
</svg>
